# xmcd
#
# Track frame offsets:
#	150
#	16028
#	34681
#	48143
#	64604
#	87257
#	106939
#	120923
#	135739
#	152586
#
# Disc length: 2313 seconds
#
# Revision: 0
# Processed by: cddbd v1.5.2PL0 Copyright (c) Steve Scherf et al.
# Submitted via: dBpowerAMP V4.0
#
DISCID=6a09070a
DTITLE=Phoebe Snow - Against The Grain
DYEAR=1978
DGENRE=Pop/Rock
TTITLE0=Every Night
TTITLE1=Do Right Woman, Do Right Man
TTITLE2=He's Not Just Another Man
TTITLE3=Random Time
TTITLE4=In My Life
TTITLE5=You Have Not Won
TTITLE6=Mama Don't Break Down
TTITLE7=Oh L.A.
TTITLE8=The Married Men
TTITLE9=Keep A Watch On The Shoreline
EXTD=
EXTT0=
EXTT1=
EXTT2=
EXTT3=
EXTT4=
EXTT5=
EXTT6=
EXTT7=
EXTT8=
EXTT9=
PLAYORDER=
